<?xml version="1.0" encoding="UTF-8" standalone="no"?>
<!DOCTYPE svg PUBLIC "-//W3C//DTD SVG 1.1//EN" "http://www.w3.org/Graphics/SVG/1.1/DTD/svg11.dtd">
<svg width="100%" height="100%" viewBox="0 0 421 261" version="1.1" xmlns="http://www.w3.org/2000/svg" xmlns:xlink="http://www.w3.org/1999/xlink" xml:space="preserve" xmlns:serif="http://www.serif.com/" style="fill-rule:evenodd;clip-rule:evenodd;stroke-linecap:round;stroke-linejoin:round;stroke-miterlimit:1.5;">
    <g transform="matrix(1,0,0,1,-570,-80)">
        <g>
            <g transform="matrix(1,0,0,1,-940,-590)">
                <path d="M1795.36,742.383C1796.12,740.485 1797.95,739.24 1800,739.24C1802.05,739.24 1803.88,740.485 1804.64,742.383C1820.59,782.248 1872.15,911.142 1872.15,911.142C1878.3,926.515 1895.77,934.004 1911.14,927.854C1926.52,921.705 1934,904.231 1927.85,888.858C1927.85,888.858 1875.12,757.026 1855.28,707.427C1846.24,684.823 1824.35,670 1800,670C1800,670 1800,670 1800,670C1775.65,670 1753.76,684.823 1744.72,707.427C1744.72,707.427 1684.72,857.428 1684.72,857.428C1681.68,865.021 1674.33,870 1666.15,870C1666.15,870 1640,870 1640,870C1601.34,870 1570,838.66 1570,800C1570,800 1570,800 1570,800C1570,781.435 1577.38,763.63 1590.5,750.503C1603.63,737.375 1621.43,730 1640,730L1660,730C1676.56,730 1690,716.557 1690,700C1690,683.443 1676.56,670 1660,670L1640,670C1605.52,670 1572.46,683.696 1548.08,708.076C1523.7,732.456 1510,765.522 1510,800L1510,800C1510,871.797 1568.2,930 1640,930C1649.28,930 1658.18,930 1666.15,930C1698.86,930 1728.28,910.084 1740.43,879.711C1740.43,879.711 1781.34,777.417 1795.36,742.383Z" style="fill:rgb(15,23,42);"/>
            </g>
            <g transform="matrix(0.611414,-1.23961e-17,1.23961e-17,0.611414,352.218,112.119)">
                <path d="M839.5,192.027L780.311,340" style="fill:none;stroke:rgb(59,130,246);stroke-width:49.07px;"/>
            </g>
            <g transform="matrix(0.262561,-6.77106e-18,6.77106e-18,0.262561,680.432,230.729)">
                <path d="M811.5,262.027L780.311,340" style="fill:none;stroke:rgb(59,130,246);stroke-width:114.26px;"/>
            </g>
        </g>
    </g>
</svg>
